<svg width="103" height="65" viewBox="0 0 103 65" fill="none" xmlns="http://www.w3.org/2000/svg">
<mask id="mask0_1380_79" style="mask-type:luminance" maskUnits="userSpaceOnUse" x="6" y="16" width="89" height="45">
<path d="M94.1895 60.4297C94.1895 60.4297 75.2256 -1.43106 6.5181 21.4894L94.1895 60.4297Z" fill="white"/>
</mask>
<g mask="url(#mask0_1380_79)">
<path d="M94.1895 60.4297C94.6675 60.2831 94.6675 60.2831 94.6675 60.2831C94.6674 60.2829 94.6672 60.2822 94.6671 60.2818C94.6669 60.2811 94.6666 60.2802 94.6662 60.279C94.6655 60.2766 94.6645 60.2732 94.6631 60.2688C94.6603 60.2601 94.6563 60.2473 94.6511 60.2306C94.6405 60.1973 94.6248 60.1483 94.6039 60.0842C94.562 59.9562 94.499 59.768 94.414 59.5248C94.244 59.0383 93.9855 58.3313 93.6303 57.4439L92.7019 57.8156C93.0513 58.6883 93.3045 59.3813 93.47 59.8547C93.5528 60.0915 93.6136 60.2733 93.6534 60.3952C93.6734 60.4562 93.6881 60.5021 93.6977 60.5325C93.7025 60.5477 93.7061 60.559 93.7083 60.5663C93.7095 60.57 93.7103 60.5726 93.7108 60.5743C93.7111 60.5751 93.7113 60.5757 93.7114 60.576C93.7113 60.576 93.7114 60.5762 93.7114 60.576C93.7113 60.576 93.7114 60.5762 94.1895 60.4297ZM91.141 51.9506C90.3226 50.3276 89.3475 48.5391 88.2014 46.653L87.3468 47.1723C88.478 49.0339 89.4404 50.7991 90.2481 52.4009L91.141 51.9506ZM84.8625 41.6218C83.7285 40.0548 82.4823 38.4632 81.1169 36.8795L80.3595 37.5325C81.7051 39.0932 82.9338 40.6623 84.0524 42.2081L84.8625 41.6218ZM76.9749 32.4907C75.5617 31.1249 74.0496 29.7889 72.4339 28.5057L71.812 29.2887C73.401 30.5508 74.8887 31.8652 76.28 33.2098L76.9749 32.4907ZM67.5077 24.9869C65.8463 23.9255 64.0947 22.9263 62.2492 22.0065L61.8032 22.9015C63.6159 23.8049 65.3367 24.7866 66.9693 25.8296L67.5077 24.9869ZM56.6966 19.602C54.8547 18.9192 52.9329 18.3156 50.9286 17.8044L50.6814 18.7734C52.6514 19.2759 54.5396 19.8689 56.3489 20.5397L56.6966 19.602ZM44.9829 16.607C43.0529 16.3179 41.0556 16.1121 38.989 15.9985L38.9342 16.997C40.9698 17.1089 42.936 17.3116 44.8348 17.596L44.9829 16.607ZM32.9603 15.9308C31.0105 15.9914 29.0051 16.1313 26.9427 16.3568L27.0514 17.3509C29.0885 17.1282 31.0681 16.9901 32.9914 16.9303L32.9603 15.9308ZM20.9748 17.2248C19.0563 17.5712 17.0925 17.9891 15.0824 18.4827L15.3208 19.4538C17.3114 18.965 19.255 18.5515 21.1525 18.2089L20.9748 17.2248ZM9.27872 20.0827C8.31572 20.3766 7.34282 20.6872 6.35992 21.0151L6.67632 21.9638C7.65122 21.6385 8.61592 21.3305 9.57062 21.0392L9.27872 20.0827ZM94.1895 60.4297C95.1456 60.1366 95.1455 60.1365 95.1455 60.1364C95.1454 60.1361 95.1451 60.1352 95.145 60.1347C95.1447 60.1339 95.1444 60.1328 95.1439 60.1314C95.1431 60.1286 95.1419 60.1249 95.1405 60.1201C95.1375 60.1106 95.1333 60.0971 95.1277 60.0797C95.1167 60.0448 95.1005 59.9943 95.0791 59.9287C95.0362 59.7976 94.9722 59.6063 94.886 59.3598C94.7137 58.8668 94.4527 58.1529 94.0945 57.2581L92.2377 58.0014C92.5841 58.8667 92.8348 59.5528 92.998 60.0197C93.0796 60.2532 93.1393 60.4318 93.1782 60.5507C93.1977 60.6101 93.2119 60.6546 93.2211 60.6835C93.2256 60.6979 93.2289 60.7085 93.231 60.715C93.232 60.7183 93.2327 60.7206 93.2331 60.7219C93.2333 60.7226 93.2334 60.723 93.2335 60.7231C93.2335 60.723 93.2334 60.7228 94.1895 60.4297ZM91.5874 51.7255C90.7637 50.0918 89.7822 48.2917 88.6287 46.3934L86.9195 47.4319C88.0432 49.2813 88.9993 51.0349 89.8016 52.626L91.5874 51.7255ZM85.2676 41.3287C84.1259 39.751 82.8709 38.1482 81.4955 36.553L79.9808 37.859C81.3165 39.4082 82.5365 40.9661 83.6473 42.5012L85.2676 41.3287ZM77.3224 32.1312C75.8982 30.7547 74.374 29.408 72.7449 28.1142L71.501 29.6803C73.0766 30.9317 74.5523 32.2353 75.9325 33.5693L77.3224 32.1312ZM67.7769 24.5655C66.1011 23.4949 64.3341 22.4869 62.4723 21.559L61.5801 23.349C63.3765 24.2443 65.0819 25.2172 66.7001 26.251L67.7769 24.5655ZM56.8704 19.1332C55.0122 18.4443 53.0736 17.8355 51.0521 17.3199L50.5578 19.2578C52.5106 19.756 54.3821 20.3437 56.1751 21.0085L56.8704 19.1332ZM45.057 16.1125C43.1114 15.8211 41.0985 15.6137 39.0165 15.4992L38.9067 17.4962C40.9269 17.6073 42.8775 17.8084 44.7607 18.0905L45.057 16.1125ZM32.9448 15.431C30.9817 15.4921 28.9633 15.6329 26.8883 15.8598L27.1057 17.848C29.1303 17.6266 31.0969 17.4894 33.007 17.43L32.9448 15.431ZM20.886 16.7328C18.957 17.0811 16.983 17.5011 14.9631 17.9971L15.4401 19.9394C17.4209 19.453 19.3543 19.0417 21.2413 18.7009L20.886 16.7328ZM9.13281 19.6045C8.16561 19.8996 7.18861 20.2116 6.20161 20.5408L6.83462 22.4381C7.80542 22.1142 8.76601 21.8074 9.71651 21.5174L9.13281 19.6045Z" fill="#CD9149"/>
</g>
<path d="M4.52303 15.9586L0.983025 23.9287L8.95312 27.4688L4.52303 15.9586Z" fill="#CD9149"/>
</svg>
